<svg width="30" height="30" viewBox="0 0 30 30" fill="none" xmlns="http://www.w3.org/2000/svg">
<path d="M19.7807 24H4.46634C3.94516 23.9992 3.44598 23.7852 3.07744 23.4062C2.70891 23.0272 2.50082 22.5138 2.5 21.9779V9.8294C2.5002 9.29279 2.70739 8.77786 3.07592 8.39797C3.44446 8.01808 3.94454 7.80406 4.46634 7.80258H6.97822C7.30916 7.8059 7.63556 7.72291 7.92796 7.56348C8.22036 7.40405 8.46977 7.17196 8.6528 6.88839L9.78489 5.11785C9.97658 4.70791 10.2765 4.36278 10.6511 4.12085C11.0256 3.87891 11.4594 3.75005 11.9017 3.75048H16.7203C17.1585 3.74117 17.5899 3.86639 17.9587 4.10991C18.3276 4.35343 18.6173 4.70421 18.7915 5.11785L19.9221 6.88839C20.1082 7.16885 20.3567 7.39974 20.6484 7.55879C20.9401 7.71784 21.2665 7.80154 21.5966 7.80258H24.1556C24.6781 7.80321 25.1781 8.01647 25.5476 8.3964C25.917 8.77634 26.1244 9.29209 26.125 9.8294V17.9539C25.8194 17.9007 25.5111 17.8742 25.2011 17.8742C23.7571 17.8757 22.3715 18.4666 21.3505 19.5166C20.3294 20.5666 19.7563 21.99 19.7549 23.4749C19.7549 23.635 19.7598 23.8049 19.7762 23.9953L19.7807 24ZM14.3133 8.81364C12.9429 8.80961 11.6138 9.29444 10.5523 10.1857C9.49082 11.077 8.7635 12.3202 8.49325 13.7018C8.223 15.0833 8.42692 16.5177 9.07069 17.7617C9.71446 19.0057 10.758 19.9818 12.0232 20.523C13.2885 21.0642 14.6973 21.1368 16.0091 20.7293C17.3209 20.3217 18.4548 19.4594 19.217 18.2883C19.9792 17.1172 20.3217 15.7106 20.188 14.3081C20.0542 12.9056 19.4519 11.5948 18.483 10.5983C17.3767 9.4614 15.8772 8.82109 14.3133 8.81833V8.81364ZM14.3133 18.94C13.5346 18.94 12.774 18.7034 12.1266 18.2586C11.4791 17.8139 10.9735 17.1809 10.6754 16.4412C10.3772 15.7015 10.3004 14.8872 10.452 14.1018C10.6036 13.3165 10.9776 12.5962 11.5279 12.0297C12.0782 11.4632 12.7793 11.0769 13.5428 10.9202C14.3064 10.7635 15.0981 10.8425 15.8176 11.1483C16.5372 11.4542 17.1533 11.9738 17.5864 12.6391C18.0196 13.3045 18.2497 14.0856 18.2505 14.8863C18.2507 15.9611 17.8369 16.9932 17.0987 17.7539C16.3604 18.5146 15.3584 18.9427 14.3133 18.9447V18.94Z" fill="#999999"/>
<path d="M25.3477 26.6243V24.7699H23.4989C23.298 24.7636 23.1075 24.6798 22.9676 24.5355C22.8278 24.3913 22.7495 24.1979 22.7495 23.997C22.7495 23.7962 22.8278 23.6043 22.9676 23.46C23.1075 23.3157 23.298 23.2304 23.4989 23.2241H25.3477V21.3742C25.354 21.1732 25.4377 20.983 25.5822 20.8431C25.7266 20.7031 25.9197 20.625 26.1208 20.625C26.3219 20.625 26.5165 20.7031 26.6609 20.8431C26.8053 20.983 26.8891 21.1732 26.8954 21.3742V23.2241H28.7502C28.951 23.2304 29.1416 23.3157 29.2814 23.46C29.4212 23.6043 29.4995 23.7962 29.4995 23.997C29.4995 24.1979 29.4212 24.3913 29.2814 24.5355C29.1416 24.6798 28.951 24.7636 28.7502 24.7699H26.8954V26.6243C26.8891 26.8253 26.8053 27.0155 26.6609 27.1554C26.5165 27.2954 26.3219 27.375 26.1208 27.375C25.9197 27.375 25.7266 27.2954 25.5822 27.1554C25.4377 27.0155 25.354 26.8253 25.3477 26.6243Z" fill="#999999"/>
</svg>
