<svg width="6" height="12" viewBox="0 0 6 12" fill="none" xmlns="http://www.w3.org/2000/svg">
<path d="M5.76821 0.949162C5.69423 0.875182 5.60641 0.816499 5.50975 0.776462C5.41309 0.736424 5.3095 0.715818 5.20488 0.715818C5.10025 0.715818 4.99666 0.736424 4.9 0.776462C4.80334 0.816499 4.71552 0.875182 4.64154 0.949162L0.747376 4.84749C0.44958 5.14617 0.282353 5.55073 0.282353 5.97249C0.282353 6.39426 0.44958 6.79882 0.747376 7.09749L4.64488 10.9975C4.79428 11.1469 4.99692 11.2308 5.20821 11.2308C5.4195 11.2308 5.62214 11.1469 5.77154 10.9975C5.92095 10.8481 6.00488 10.6455 6.00488 10.4342C6.00488 10.2229 5.92095 10.0202 5.77154 9.87083L2.43821 6.53749C2.36423 6.46352 2.30555 6.37569 2.26551 6.27904C2.22547 6.18238 2.20487 6.07878 2.20487 5.97416C2.20487 5.86954 2.22547 5.76594 2.26551 5.66929C2.30555 5.57263 2.36423 5.48481 2.43821 5.41083L5.77154 2.07749C5.84555 2.00327 5.90419 1.91516 5.94409 1.81824C5.98399 1.72131 6.00436 1.61746 6.00406 1.51264C6.00375 1.40782 5.98275 1.30409 5.94228 1.2074C5.90181 1.11071 5.84266 1.02295 5.76821 0.949162Z" fill="black"/>
</svg>
